<svg width="428" height="32" viewbox="0 0 428 32" fill="none" xmlns="http://www.w3.org/2000/svg">
<g clip-path="url(#clip0_33718_2277)">
<rect width="428" height="32" fill="white"/>
<path fill-rule="evenodd" clip-rule="evenodd" d="M8.74195e-08 1.47685e-08L428 3.74317e-05L428 1L0 0.999963L8.74195e-08 1.47685e-08Z" fill="#E6E8EC"/>
<path fill-rule="evenodd" clip-rule="evenodd" d="M31.3 21.331L38.2961 16.5L31.3 11.669V21.331ZM30.6662 11.2313L30.6695 11.2336L30.6662 11.2313ZM31.4103 22.8347L39.643 17.1497C40.119 16.8249 40.119 16.1751 39.643 15.8503L31.4103 10.1653C30.8286 9.75925 30 10.1491 30 10.815V22.185C30 22.8509 30.8286 23.2408 31.4103 22.8347Z" fill="#A1A6B4"/>
<path d="M47.088 11.984C48.1013 11.28 49.264 10.928 50.576 10.928C51.7067 10.928 52.608 11.184 53.28 11.696C53.952 12.208 54.288 12.9227 54.288 13.84C54.288 14.2773 54.2027 14.688 54.032 15.072C53.872 15.456 53.6267 15.808 53.296 16.128C52.976 16.448 52.6613 16.72 52.352 16.944C52.0533 17.1573 51.6747 17.3973 51.216 17.664C51.1627 17.696 50.9973 17.792 50.72 17.952C50.4533 18.112 50.2827 18.2133 50.208 18.256C50.144 18.2987 49.9947 18.3947 49.76 18.544C49.536 18.6827 49.3867 18.784 49.312 18.848C49.248 18.912 49.1307 19.0133 48.96 19.152C48.8 19.2907 48.688 19.408 48.624 19.504C48.5707 19.6 48.496 19.7227 48.4 19.872C48.3147 20.0107 48.256 20.1493 48.224 20.288C48.192 20.4267 48.176 20.576 48.176 20.736L54.368 20.72V22H46.704V21.36C46.704 20.7627 46.8 20.224 46.992 19.744C47.184 19.2533 47.456 18.8373 47.808 18.496C48.1707 18.144 48.528 17.8507 48.88 17.616C49.232 17.3707 49.6427 17.1093 50.112 16.832C50.2187 16.7787 50.2987 16.736 50.352 16.704C51.3227 16.1387 51.9573 15.7067 52.256 15.408C52.7147 14.9387 52.944 14.4107 52.944 13.824C52.944 13.2907 52.7253 12.8853 52.288 12.608C51.8613 12.32 51.2533 12.176 50.464 12.176C49.312 12.176 48.1867 12.56 47.088 13.328V11.984ZM56.6915 11.12H63.2195V12.4H57.9555L57.7635 15.472C58.3395 15.312 58.9582 15.232 59.6195 15.232C60.1635 15.232 60.6702 15.296 61.1395 15.424C61.6088 15.5413 62.0408 15.7333 62.4355 16C62.8408 16.256 63.1608 16.6187 63.3955 17.088C63.6302 17.5467 63.7475 18.0907 63.7475 18.72C63.7475 19.7973 63.3475 20.6453 62.5475 21.264C61.7582 21.8827 60.7502 22.192 59.5235 22.192C58.2008 22.192 57.0382 21.9467 56.0355 21.456V20.176C56.9955 20.688 58.1048 20.944 59.3635 20.944C60.2808 20.944 61.0115 20.752 61.5555 20.368C62.1102 19.984 62.3875 19.4347 62.3875 18.72C62.3875 17.2053 61.3102 16.448 59.1555 16.448C58.2168 16.448 57.2782 16.6187 56.3395 16.96L56.6915 11.12ZM65.6211 13.744C65.6211 12.976 65.9571 12.3147 66.6291 11.76C67.3011 11.2053 68.2878 10.928 69.5891 10.928C70.7945 10.928 71.7651 11.2213 72.5011 11.808C73.2371 12.3947 73.6158 13.0987 73.6371 13.92C73.6691 15.04 73.1731 15.9573 72.1491 16.672C73.3971 17.2907 74.0211 18.144 74.0211 19.232C74.0211 20.064 73.6531 20.768 72.9171 21.344C72.1918 21.9093 71.1145 22.192 69.6851 22.192C68.2665 22.192 67.1678 21.8827 66.3891 21.264C65.6211 20.6453 65.2371 19.8933 65.2371 19.008C65.2371 18.4747 65.3918 17.9467 65.7011 17.424C66.0211 16.8907 66.4851 16.4427 67.0931 16.08C66.1118 15.4827 65.6211 14.704 65.6211 13.744ZM69.7491 17.104C69.1945 16.9547 68.6878 16.7947 68.2291 16.624C67.6958 16.88 67.2851 17.2107 66.9971 17.616C66.7198 18.0213 66.5811 18.4373 66.5811 18.864C66.5811 19.5147 66.8478 20.0267 67.3811 20.4C67.9251 20.7627 68.7038 20.944 69.7171 20.944C70.5705 20.944 71.2745 20.7947 71.8291 20.496C72.3945 20.1867 72.6771 19.7867 72.6771 19.296C72.6771 18.88 72.5278 18.528 72.2291 18.24C71.9411 17.9413 71.6585 17.7387 71.3811 17.632C71.1038 17.5253 70.6451 17.376 70.0051 17.184C69.8878 17.152 69.8025 17.1253 69.7491 17.104ZM72.2931 14.16C72.2931 13.5947 72.0531 13.1253 71.5731 12.752C71.0931 12.368 70.4211 12.176 69.5571 12.176C68.7678 12.176 68.1385 12.3253 67.6691 12.624C67.1998 12.912 66.9651 13.28 66.9651 13.728C66.9651 14.0373 67.0291 14.3093 67.1571 14.544C67.2958 14.768 67.4985 14.96 67.7651 15.12C68.0425 15.2693 68.2931 15.392 68.5171 15.488C68.7411 15.5733 69.0398 15.6693 69.4131 15.776C69.4558 15.7867 69.4878 15.7973 69.5091 15.808C69.5305 15.808 69.5571 15.8133 69.5891 15.824C69.6211 15.8347 69.6531 15.8453 69.6851 15.856C69.7171 15.8667 69.8985 15.92 70.2291 16.016C70.5705 16.1013 70.8318 16.1707 71.0131 16.224C71.8665 15.6693 72.2931 14.9813 72.2931 14.16Z" fill="#A1A6B4"/>
<path d="M114.425 10C113.294 10 112.208 10.5297 111.5 11.3668C110.791 10.5297 109.706 10 108.575 10C106.573 10 105 11.5826 105 13.5967C105 16.0687 107.21 18.0828 110.557 21.1433L111.5 22L112.442 21.1368C115.79 18.0828 118 16.0687 118 13.5967C118 11.5826 116.427 10 114.425 10ZM111.565 20.1689L111.5 20.2343L111.435 20.1689C108.341 17.3504 106.3 15.4866 106.3 13.5967C106.3 12.2888 107.275 11.3079 108.575 11.3079C109.576 11.3079 110.551 11.9553 110.895 12.8512H112.111C112.449 11.9553 113.424 11.3079 114.425 11.3079C115.725 11.3079 116.7 12.2888 116.7 13.5967C116.7 15.4866 114.659 17.3504 111.565 20.1689Z" fill="#A1A6B4"/>
<path d="M127.488 11.12H128.48V20.72H130.512V22H124.848V20.72H127.136V12.544L124.848 13.408V12.128L127.488 11.12ZM132.907 20.64C132.096 19.6053 131.691 18.2453 131.691 16.56C131.691 14.8747 132.096 13.5147 132.907 12.48C133.718 11.4453 134.912 10.928 136.491 10.928C138.08 10.928 139.28 11.4453 140.091 12.48C140.902 13.504 141.307 14.864 141.307 16.56C141.307 18.256 140.902 19.6213 140.091 20.656C139.28 21.68 138.08 22.192 136.491 22.192C134.912 22.192 133.718 21.6747 132.907 20.64ZM139.083 19.792C139.659 19.0347 139.947 17.9573 139.947 16.56C139.947 15.1627 139.659 14.0907 139.083 13.344C138.518 12.5867 137.654 12.208 136.491 12.208C135.328 12.208 134.464 12.5867 133.899 13.344C133.334 14.0907 133.051 15.1627 133.051 16.56C133.051 17.9573 133.334 19.0347 133.899 19.792C134.464 20.5387 135.328 20.912 136.491 20.912C137.654 20.912 138.518 20.5387 139.083 19.792ZM148.461 11.12H149.917V18.336H151.965V19.584H149.917V22H148.589V19.584H142.525V18.384L148.461 11.12ZM148.589 18.336V12.928L144.173 18.336H148.589Z" fill="#A1A6B4"/>
<path d="M193 19.1888C192.493 19.1888 192.04 19.3845 191.693 19.6913L186.94 16.9829C186.973 16.8328 187 16.6827 187 16.5261C187 16.3695 186.973 16.2194 186.94 16.0693L191.64 13.387C192 13.7134 192.473 13.9157 193 13.9157C194.107 13.9157 195 13.0412 195 11.9578C195 10.8745 194.107 10 193 10C191.893 10 191 10.8745 191 11.9578C191 12.1145 191.027 12.2646 191.06 12.4147L186.36 15.0969C186 14.7706 185.527 14.5683 185 14.5683C183.893 14.5683 183 15.4428 183 16.5261C183 17.6094 183.893 18.4839 185 18.4839C185.527 18.4839 186 18.2816 186.36 17.9553L191.107 20.6702C191.073 20.8072 191.053 20.9508 191.053 21.0944C191.053 22.1451 191.927 23 193 23C194.073 23 194.947 22.1451 194.947 21.0944C194.947 20.0437 194.073 19.1888 193 19.1888ZM193 11.3052C193.367 11.3052 193.667 11.5989 193.667 11.9578C193.667 12.3168 193.367 12.6104 193 12.6104C192.633 12.6104 192.333 12.3168 192.333 11.9578C192.333 11.5989 192.633 11.3052 193 11.3052ZM185 17.1787C184.633 17.1787 184.333 16.885 184.333 16.5261C184.333 16.1672 184.633 15.8735 185 15.8735C185.367 15.8735 185.667 16.1672 185.667 16.5261C185.667 16.885 185.367 17.1787 185 17.1787ZM193 21.76C192.633 21.76 192.333 21.4664 192.333 21.1074C192.333 20.7485 192.633 20.4548 193 20.4548C193.367 20.4548 193.667 20.7485 193.667 21.1074C193.667 21.4664 193.367 21.76 193 21.76Z" fill="#A1A6B4"/>
<path d="M203.192 16.256C204.227 15.5627 205.363 15.216 206.6 15.216C207.592 15.216 208.461 15.52 209.208 16.128C209.955 16.7253 210.328 17.5573 210.328 18.624C210.328 19.744 209.955 20.6187 209.208 21.248C208.472 21.8773 207.544 22.192 206.424 22.192C204.888 22.192 203.736 21.7173 202.968 20.768C202.211 19.808 201.832 18.464 201.832 16.736C201.832 14.816 202.285 13.3707 203.192 12.4C204.109 11.4187 205.304 10.928 206.776 10.928C207.725 10.928 208.605 11.136 209.416 11.552V12.832C208.627 12.416 207.757 12.208 206.808 12.208C205.805 12.208 204.968 12.5333 204.296 13.184C203.635 13.824 203.267 14.848 203.192 16.256ZM203.208 17.6C203.411 19.8293 204.451 20.944 206.328 20.944C207.117 20.944 207.752 20.7627 208.232 20.4C208.723 20.0373 208.968 19.4667 208.968 18.688C208.968 17.8987 208.717 17.3333 208.216 16.992C207.715 16.64 207.064 16.464 206.264 16.464C205.08 16.464 204.061 16.8427 203.208 17.6ZM212.106 13.744C212.106 12.976 212.442 12.3147 213.114 11.76C213.786 11.2053 214.772 10.928 216.074 10.928C217.279 10.928 218.25 11.2213 218.986 11.808C219.722 12.3947 220.1 13.0987 220.122 13.92C220.154 15.04 219.658 15.9573 218.634 16.672C219.882 17.2907 220.506 18.144 220.506 19.232C220.506 20.064 220.138 20.768 219.402 21.344C218.676 21.9093 217.599 22.192 216.17 22.192C214.751 22.192 213.652 21.8827 212.874 21.264C212.106 20.6453 211.722 19.8933 211.722 19.008C211.722 18.4747 211.876 17.9467 212.186 17.424C212.506 16.8907 212.97 16.4427 213.578 16.08C212.596 15.4827 212.106 14.704 212.106 13.744ZM216.234 17.104C215.679 16.9547 215.172 16.7947 214.714 16.624C214.18 16.88 213.77 17.2107 213.482 17.616C213.204 18.0213 213.066 18.4373 213.066 18.864C213.066 19.5147 213.332 20.0267 213.866 20.4C214.41 20.7627 215.188 20.944 216.202 20.944C217.055 20.944 217.759 20.7947 218.314 20.496C218.879 20.1867 219.161 19.7867 219.161 19.296C219.161 18.88 219.012 18.528 218.714 18.24C218.426 17.9413 218.143 17.7387 217.866 17.632C217.588 17.5253 217.13 17.376 216.49 17.184C216.372 17.152 216.287 17.1253 216.234 17.104ZM218.778 14.16C218.778 13.5947 218.538 13.1253 218.058 12.752C217.578 12.368 216.906 12.176 216.042 12.176C215.252 12.176 214.623 12.3253 214.154 12.624C213.684 12.912 213.45 13.28 213.45 13.728C213.45 14.0373 213.514 14.3093 213.642 14.544C213.78 14.768 213.983 14.96 214.25 15.12C214.527 15.2693 214.778 15.392 215.002 15.488C215.226 15.5733 215.524 15.6693 215.898 15.776C215.94 15.7867 215.972 15.7973 215.994 15.808C216.015 15.808 216.042 15.8133 216.074 15.824C216.106 15.8347 216.138 15.8453 216.17 15.856C216.202 15.8667 216.383 15.92 216.714 16.016C217.055 16.1013 217.316 16.1707 217.498 16.224C218.351 15.6693 218.778 14.9813 218.778 14.16Z" fill="#A1A6B4"/>
</g>
<defs>
<clipPath id="clip0_33718_2277">
<rect width="428" height="32" fill="white"/>
</clipPath>
</defs>
</svg>
